<?xml version="1.0" encoding="utf-8"?>
<!-- Generator: Adobe Illustrator 26.3.1, SVG Export Plug-In . SVG Version: 6.00 Build 0)  -->
<svg version="1.1" id="图层_1" xmlns="http://www.w3.org/2000/svg" xmlns:xlink="http://www.w3.org/1999/xlink" x="0px" y="0px"
	 viewBox="0 0 24 24" style="enable-background:new 0 0 24 24;" xml:space="preserve">
<style type="text/css">
	.st1{fill:none;stroke:#292733;stroke-width:1.5;stroke-linecap:round;}
	.st2{fill:#6129FF;}
	.st3{fill:none;stroke:#6129FF;stroke-width:1.5;}
	.st4{fill:none;stroke:#292733;stroke-width:1.4985;stroke-linecap:round;}
	.st5{fill:none;stroke:#6129FF;stroke-width:1.4985;}
	.st6{fill:none;stroke:#6129FF;stroke-width:1.5;stroke-linecap:round;}
	.st7{fill:none;stroke:#6129FF;stroke-width:4;stroke-linecap:round;}
</style>
<g>
	<path class="st2" d="M10,1.2C9.9,0.7,9.1,0.7,9,1.2c-0.2,1.1-1.1,2-2.2,2.2c-0.5,0.1-0.5,0.8,0,0.9c1.1,0.2,2,1.1,2.2,2.2
		c0.1,0.5,0.8,0.5,0.9,0c0.2-1.1,1.1-2,2.2-2.2c0.5-0.1,0.5-0.8,0-0.9C11.1,3.2,10.2,2.3,10,1.2z"/>
	<path class="st1" d="M4.2,6.4C2.6,8.5,1.8,11,2.3,13.5 M19.5,16.8c2.3-2.6,3.1-6.2,1.7-9.4c-1.2-2.7-3.7-4.5-6.6-5 M8.6,15.2
		l3.3-2.3 M13.5,22.2l-4.9-7l-1.4-2c-0.6-0.9-0.4-2.2,0.5-2.8c0.9-0.6,2.2-0.4,2.8,0.5l1.4,2l4.9,7c0.6,0.9,0.4,2.2-0.5,2.8
		C15.4,23.3,14.1,23.1,13.5,22.2z"/>
</g>
</svg>
