<?xml version="1.0" encoding="utf-8"?>
<!-- Generator: Adobe Illustrator 26.3.1, SVG Export Plug-In . SVG Version: 6.00 Build 0)  -->
<svg version="1.1" id="图层_1" xmlns="http://www.w3.org/2000/svg" xmlns:xlink="http://www.w3.org/1999/xlink" x="0px" y="0px"
	 viewBox="0 0 24 24" style="enable-background:new 0 0 24 24;" xml:space="preserve">
<style type="text/css">
	.st1{fill:none;stroke:#292733;stroke-width:1.5;stroke-linecap:round;}
	.st2{fill:#6129FF;}
	.st3{fill:none;stroke:#6129FF;stroke-width:1.5;}
	.st4{fill:none;stroke:#292733;stroke-width:1.4985;stroke-linecap:round;}
	.st5{fill:none;stroke:#6129FF;stroke-width:1.4985;}
	.st6{fill:none;stroke:#6129FF;stroke-width:1.5;stroke-linecap:round;}
	.st7{fill:none;stroke:#6129FF;stroke-width:4;stroke-linecap:round;}
</style>
<g>
	<path class="st4" d="M15.6,6c0,0.6-0.1,1.3-0.4,1.8c-0.2,0.6-0.6,1.1-1,1.6c-0.5,0.5-1,0.8-1.6,1c-0.6,0.2-1.2,0.4-1.8,0.4
		c-0.6,0-1.3-0.1-1.8-0.4c-0.6-0.2-1.1-0.6-1.6-1C7,9,6.6,8.5,6.4,7.9C6.1,7.3,6,6.7,6,6s0.1-1.3,0.4-1.8c0.2-0.6,0.6-1.1,1-1.6
		c0.5-0.5,1-0.8,1.6-1c0.6-0.2,1.2-0.4,1.8-0.4c0.6,0,1.3,0.1,1.8,0.4c0.6,0.2,1.1,0.6,1.6,1c0.5,0.5,0.8,1,1,1.6
		C15.5,4.8,15.6,5.4,15.6,6z"/>
	<path class="st4" d="M1.4,22.8c0-5.2,4.2-9.5,9.4-9.5c1.8,0,3.4,0.5,4.9,1.4"/>
	<path class="st5" d="M14.3,18.9c1.9-0.4,3.4-1.9,3.8-3.8c0,0,0.1,0,0.1,0c0.4,1.9,1.9,3.4,3.8,3.8c0,0,0,0.1,0,0.1
		c-1.9,0.4-3.4,1.9-3.8,3.8c0,0-0.1,0-0.1,0C17.7,20.9,16.2,19.4,14.3,18.9C14.2,19,14.2,18.9,14.3,18.9z"/>
	<path class="st2" d="M20.6,9.7c-0.1-0.4-0.6-0.4-0.7,0c-0.2,0.9-0.8,1.5-1.7,1.7c-0.4,0.1-0.4,0.6,0,0.7c0.9,0.2,1.5,0.9,1.7,1.7
		c0.1,0.4,0.6,0.4,0.7,0c0.2-0.9,0.8-1.5,1.7-1.7c0.4-0.1,0.4-0.6,0-0.7C21.4,11.3,20.7,10.6,20.6,9.7z"/>
</g>
</svg>
