<?xml version="1.0" encoding="utf-8"?>
<!-- Generator: Adobe Illustrator 26.3.1, SVG Export Plug-In . SVG Version: 6.00 Build 0)  -->
<svg version="1.1" id="图层_1" xmlns="http://www.w3.org/2000/svg" xmlns:xlink="http://www.w3.org/1999/xlink" x="0px" y="0px"
	 viewBox="0 0 24 24" style="enable-background:new 0 0 24 24;" xml:space="preserve">
<style type="text/css">
	.st1{fill:none;stroke:#292733;stroke-width:1.5;stroke-linecap:round;}
	.st2{fill:#6129FF;}
	.st3{fill:none;stroke:#6129FF;stroke-width:1.5;}
	.st4{fill:none;stroke:#292733;stroke-width:1.4985;stroke-linecap:round;}
	.st5{fill:none;stroke:#6129FF;stroke-width:1.4985;}
	.st6{fill:none;stroke:#6129FF;stroke-width:1.5;stroke-linecap:round;}
	.st7{fill:none;stroke:#6129FF;stroke-width:4;stroke-linecap:round;}
</style>
<g>
	<path class="st2" d="M5.4,7.7c0.1-0.5,0.8-0.5,0.9,0c0.2,1.1,1.1,2,2.2,2.2c0.5,0.1,0.5,0.8,0,0.9c-1.1,0.2-2,1.1-2.2,2.2
		c-0.1,0.5-0.8,0.5-0.9,0c-0.2-1.1-1.1-2-2.2-2.2c-0.5-0.1-0.5-0.8,0-0.9C4.3,9.7,5.2,8.8,5.4,7.7z"/>
	<path class="st2" d="M3.2,3.8c-0.1-0.3-0.5-0.3-0.6,0C2.5,4.5,2,5,1.3,5.1C1,5.2,1,5.6,1.3,5.7C2,5.8,2.5,6.4,2.6,7
		c0.1,0.3,0.5,0.3,0.6,0c0.1-0.7,0.7-1.2,1.3-1.3c0.3-0.1,0.3-0.5,0-0.6C3.8,5,3.3,4.5,3.2,3.8z"/>
	<path class="st6" d="M6.3,19.5l4.8-4.8 M22.9,8.3c0.1,0.5,0.1,1-0.1,1.4c-0.2,0.5-0.8,0.9-1.9,1.7l-1.5,1.1l-5.9-5.9l1-1.5
		c0.8-1.1,1.2-1.7,1.7-1.9c0.4-0.2,1-0.3,1.4-0.1c0.5,0.1,1,0.6,2,1.6c0.6,0.6,1.1,1.1,1.7,1.7C22.2,7.2,22.7,7.7,22.9,8.3z
		 M4.7,15.4l0,0.3c-0.1,1.9-0.1,2.9,0.2,3.6c0.3,0.6,0.8,1.2,1.5,1.5c0.7,0.4,1.7,0.3,3.6,0.2l4.9-0.2c1.3-0.1,2-0.1,2.5-0.3
		c0.5-0.2,0.9-0.6,1.2-1c0.4-0.5,0.5-1.1,0.9-2.4l0.2-0.7c0.3-1,0.4-1.5,0.4-2c0-0.4-0.1-0.9-0.3-1.3c-0.2-0.4-0.6-0.8-1.4-1.6
		l-4.1-4.1c-0.8-0.8-1.1-1.1-1.6-1.4c-0.4-0.2-0.8-0.3-1.3-0.3c-0.5,0-1,0.1-2,0.4L8.7,6.3"/>
</g>
</svg>
