<?xml version="1.0" encoding="utf-8"?>
<!-- Generator: Adobe Illustrator 26.3.1, SVG Export Plug-In . SVG Version: 6.00 Build 0)  -->
<svg version="1.1" id="图层_1" xmlns="http://www.w3.org/2000/svg" xmlns:xlink="http://www.w3.org/1999/xlink" x="0px" y="0px"
	 viewBox="0 0 24 24" style="enable-background:new 0 0 24 24;" xml:space="preserve">
<style type="text/css">
	.st1{fill:none;stroke:#292733;stroke-width:1.5;stroke-linecap:round;}
	.st2{fill:#6129FF;}
	.st3{fill:none;stroke:#6129FF;stroke-width:1.5;}
	.st4{fill:none;stroke:#292733;stroke-width:1.4985;stroke-linecap:round;}
	.st5{fill:none;stroke:#6129FF;stroke-width:1.4985;}
	.st6{fill:none;stroke:#6129FF;stroke-width:1.5;stroke-linecap:round;}
	.st7{fill:none;stroke:#6129FF;stroke-width:4;stroke-linecap:round;}
</style>
<g>
	<path class="st6" d="M5.3,17.2l1-1.1c1.1-1.2,3-1.3,4.3-0.3c1,0.8,2.5,0.9,3.6,0.2l2.9-1.8c0.8-0.5,1.2-0.8,1.6-0.8
		c0.6-0.1,1.2,0.3,1.5,0.8c0.1,0.3,0.1,0.8,0.1,1.8c0,1.6,0,2.3-0.2,3c-0.4,1.2-1.3,2.1-2.5,2.5c-0.6,0.2-1.4,0.2-3,0.2H8.7
		c-2.2,0-3.4,0-4.2-0.4c-0.8-0.4-1.4-1-1.7-1.7c-0.4-0.9-0.4-2-0.4-4.2v-5.2c0-2.2,0-3.4,0.4-4.2c0.4-0.8,1-1.4,1.7-1.7
		c0.9-0.4,2-0.4,4.2-0.4h2.6"/>
	<path class="st3" d="M15,5.7c1.7-0.3,3-1.7,3.3-3.3c0,0,0.1,0,0.1,0c0.3,1.7,1.7,3,3.3,3.3c0,0,0,0.1,0,0.1c-1.7,0.3-3,1.7-3.3,3.3
		c0,0-0.1,0-0.1,0C17.9,7.4,16.6,6.1,15,5.7C14.9,5.7,14.9,5.7,15,5.7z"/>
	<line class="st7" x1="8.3" y1="9.7" x2="8.3" y2="9.7"/>
</g>
</svg>
