<?xml version="1.0" encoding="utf-8"?>
<!-- Generator: Adobe Illustrator 26.3.1, SVG Export Plug-In . SVG Version: 6.00 Build 0)  -->
<svg version="1.1" id="图层_1" xmlns="http://www.w3.org/2000/svg" xmlns:xlink="http://www.w3.org/1999/xlink" x="0px" y="0px"
	 viewBox="0 0 24 24" style="enable-background:new 0 0 24 24;" xml:space="preserve">
<style type="text/css">
	.st1{fill:none;stroke:#292733;stroke-width:1.5;stroke-linecap:round;}
	.st2{fill:#6129FF;}
	.st3{fill:none;stroke:#6129FF;stroke-width:1.5;}
	.st4{fill:none;stroke:#292733;stroke-width:1.4985;stroke-linecap:round;}
	.st5{fill:none;stroke:#6129FF;stroke-width:1.4985;}
	.st6{fill:none;stroke:#6129FF;stroke-width:1.5;stroke-linecap:round;}
	.st7{fill:none;stroke:#6129FF;stroke-width:4;stroke-linecap:round;}
</style>
<g>
	<path class="st1" d="M6.8,3.9h6.7c1.9,0,3.4,1.5,3.4,3.4 M19.3,14c0.7,0.7,1.1,1.1,1.4,1.2c0.7,0.3,1.5-0.1,1.8-0.7
		c0.1-0.3,0.1-0.8,0.1-1.9v-0.9c0-1.6,0-2.4-0.3-2.7c-0.3-0.3-0.7-0.5-1.1-0.5C20.6,8.4,20,9,18.8,10L18,10.7
		c-0.4,0.3-0.6,0.5-0.8,0.7c-0.1,0.2-0.2,0.4-0.3,0.6c-0.1,0.2-0.1,0.5-0.1,1v1.1c0,2.1,0,3.2-0.4,4c-0.4,0.7-1,1.3-1.7,1.7
		c-0.8,0.4-1.9,0.4-4,0.4H7.7c-2.1,0-3.2,0-4-0.4c-0.7-0.4-1.3-1-1.7-1.7c-0.4-0.8-0.4-1.9-0.4-4v-3.9"/>
	<path class="st2" d="M3.8,4C3.7,3.7,3.2,3.7,3.1,4C3,4.8,2.4,5.4,1.6,5.5c-0.3,0.1-0.3,0.6,0,0.6C2.4,6.3,3,6.9,3.1,7.7
		C3.2,8,3.7,8,3.8,7.7c0.2-0.8,0.7-1.3,1.5-1.5c0.3-0.1,0.3-0.6,0-0.6C4.5,5.4,3.9,4.8,3.8,4z"/>
	<path class="st3" d="M6,12.1c1.6-0.3,2.9-1.6,3.2-3.2c0,0,0.1,0,0.1,0c0.3,1.6,1.6,2.9,3.2,3.2c0,0,0,0.1,0,0.1
		c-1.6,0.3-2.9,1.6-3.2,3.2c0,0-0.1,0-0.1,0C8.8,13.7,7.6,12.4,6,12.1C6,12.1,6,12.1,6,12.1z"/>
</g>
</svg>
