<?xml version="1.0" encoding="utf-8"?>
<!-- Generator: Adobe Illustrator 26.3.1, SVG Export Plug-In . SVG Version: 6.00 Build 0)  -->
<svg version="1.1" id="图层_1" xmlns="http://www.w3.org/2000/svg" xmlns:xlink="http://www.w3.org/1999/xlink" x="0px" y="0px"
	 viewBox="0 0 24 24" style="enable-background:new 0 0 24 24;" xml:space="preserve">
<style type="text/css">
	.st1{fill:none;stroke:#292733;stroke-width:1.5;stroke-linecap:round;}
	.st2{fill:#6129FF;}
	.st3{fill:none;stroke:#6129FF;stroke-width:1.5;}
	.st4{fill:none;stroke:#292733;stroke-width:1.4985;stroke-linecap:round;}
	.st5{fill:none;stroke:#6129FF;stroke-width:1.4985;}
	.st6{fill:none;stroke:#6129FF;stroke-width:1.5;stroke-linecap:round;}
	.st7{fill:none;stroke:#6129FF;stroke-width:4;stroke-linecap:round;}
</style>
<g>
	<path class="st3" d="M2.1,18c1.7-0.3,3-1.7,3.3-3.3c0,0,0.1,0,0.1,0c0.3,1.7,1.7,3,3.3,3.3c0,0,0,0.1,0,0.1c-1.7,0.3-3,1.7-3.3,3.3
		c0,0-0.1,0-0.1,0C5.1,19.7,3.8,18.4,2.1,18C2.1,18.1,2.1,18,2.1,18z"/>
	<path class="st6" d="M14.6,9.8c-0.4-0.3-0.8-0.5-1.2-0.8c-0.3-0.2-0.7-0.4-1-0.6c-0.6-0.3-0.9-0.5-1.2-0.4c-0.2,0-0.5,0.2-0.7,0.4
		c-0.2,0.2-0.2,0.6-0.3,1.3c0,0.5-0.1,0.9-0.1,1.3c0,0.4,0,0.9,0.1,1.3c0,0.7,0.1,1,0.3,1.3c0.2,0.2,0.4,0.4,0.7,0.4
		c0.3,0,0.6-0.1,1.2-0.4c0.4-0.2,0.7-0.4,1-0.5c0.4-0.2,0.8-0.5,1.2-0.8c0.6-0.4,0.9-0.6,1-0.9c0.1-0.2,0.1-0.5,0-0.8
		C15.5,10.4,15.2,10.2,14.6,9.8z M2.9,11.1V9c0-2.2,0-3.4,0.4-4.2C3.8,4,4.4,3.4,5.1,3c0.9-0.4,2-0.4,4.2-0.4h6.2
		c2.2,0,3.4,0,4.2,0.4c0.8,0.4,1.4,1,1.7,1.7c0.4,0.9,0.4,2,0.4,4.2v4.2c0,2.2,0,3.4-0.4,4.2c-0.4,0.8-1,1.4-1.7,1.7
		c-0.9,0.4-2,0.4-4.2,0.4h-2.6"/>
</g>
</svg>
