<?xml version="1.0" encoding="utf-8"?>
<!-- Generator: Adobe Illustrator 26.3.1, SVG Export Plug-In . SVG Version: 6.00 Build 0)  -->
<svg version="1.1" id="图层_1" xmlns="http://www.w3.org/2000/svg" xmlns:xlink="http://www.w3.org/1999/xlink" x="0px" y="0px"
	 viewBox="0 0 24 24" style="enable-background:new 0 0 24 24;" xml:space="preserve">
<style type="text/css">
	.st1{fill:none;stroke:#292733;stroke-width:1.5;stroke-linecap:round;}
	.st2{fill:#6129FF;}
	.st3{fill:none;stroke:#6129FF;stroke-width:1.5;}
	.st4{fill:none;stroke:#292733;stroke-width:1.4985;stroke-linecap:round;}
	.st5{fill:none;stroke:#6129FF;stroke-width:1.4985;}
	.st6{fill:none;stroke:#6129FF;stroke-width:1.5;stroke-linecap:round;}
	.st7{fill:none;stroke:#6129FF;stroke-width:4;stroke-linecap:round;}
</style>
<g>
	<path class="st3" d="M15,17.9c1.7-0.3,3-1.7,3.3-3.3c0,0,0.1,0,0.1,0c0.3,1.7,1.7,3,3.3,3.3c0,0,0,0.1,0,0.1
		c-1.7,0.3-3,1.7-3.3,3.3c0,0-0.1,0-0.1,0C17.9,19.6,16.6,18.3,15,17.9C14.9,17.9,14.9,17.9,15,17.9z"/>
	<path class="st2" d="M14.1,10.3c-0.1-0.3-0.5-0.3-0.6,0c-0.1,0.7-0.7,1.2-1.3,1.3c-0.3,0.1-0.3,0.5,0,0.6c0.7,0.1,1.2,0.7,1.3,1.3
		c0.1,0.3,0.5,0.3,0.6,0c0.1-0.7,0.7-1.2,1.3-1.3c0.3-0.1,0.3-0.5,0-0.6C14.8,11.5,14.2,10.9,14.1,10.3z"/>
	<path class="st1" d="M7.3,11.9h1.8 M7.3,7.4h7 M19.3,11.4V8.8c0-2.2,0-3.4-0.4-4.2c-0.4-0.8-1-1.4-1.7-1.7c-0.9-0.4-2-0.4-4.2-0.4
		H8.7c-2.2,0-3.4,0-4.2,0.4c-0.8,0.4-1.4,1-1.7,1.7c-0.4,0.9-0.4,2-0.4,4.2v9.8c0,0,0,0,0,0c0,1.4,1.3,2.3,2.6,1.9c0,0,0,0,0,0
		l0.7-0.2c0.7-0.2,1.5-0.1,2.2,0.3c0.8,0.5,1.7,0.6,2.6,0.1l1.4-0.8"/>
</g>
</svg>
