<?xml version="1.0" encoding="utf-8"?>
<!-- Generator: Adobe Illustrator 26.3.1, SVG Export Plug-In . SVG Version: 6.00 Build 0)  -->
<svg version="1.1" id="图层_1" xmlns="http://www.w3.org/2000/svg" xmlns:xlink="http://www.w3.org/1999/xlink" x="0px" y="0px"
	 viewBox="0 0 24 24" style="enable-background:new 0 0 24 24;" xml:space="preserve">
<style type="text/css">
	.st1{fill:none;stroke:#292733;stroke-width:1.5;stroke-linecap:round;}
	.st2{fill:#6129FF;}
	.st3{fill:none;stroke:#6129FF;stroke-width:1.5;}
	.st4{fill:none;stroke:#292733;stroke-width:1.4985;stroke-linecap:round;}
	.st5{fill:none;stroke:#6129FF;stroke-width:1.4985;}
	.st6{fill:none;stroke:#6129FF;stroke-width:1.5;stroke-linecap:round;}
	.st7{fill:none;stroke:#6129FF;stroke-width:4;stroke-linecap:round;}
</style>
<g>
	<path class="st3" d="M12.5,7.6c1.9-0.4,3.4-1.9,3.8-3.8c0,0,0.1,0,0.1,0c0.4,1.9,1.9,3.4,3.8,3.8c0,0,0,0.1,0,0.1
		c-1.9,0.4-3.4,1.9-3.8,3.8c0,0-0.1,0-0.1,0C15.9,9.6,14.4,8.1,12.5,7.6C12.5,7.7,12.5,7.7,12.5,7.6z"/>
	<path class="st2" d="M21.1,1.6c-0.1-0.3-0.5-0.3-0.6,0c-0.1,0.7-0.7,1.2-1.3,1.3c-0.3,0.1-0.3,0.5,0,0.6c0.7,0.1,1.2,0.7,1.3,1.3
		c0.1,0.3,0.5,0.3,0.6,0c0.1-0.7,0.7-1.2,1.3-1.3c0.3-0.1,0.3-0.5,0-0.6C21.8,2.8,21.2,2.2,21.1,1.6z"/>
	<path class="st1" d="M20,10.8c0.2,0.8,0.3,1.6,0.3,2.4c0,5.2-4.3,9.5-9.5,9.5c-5.2,0-9.5-4.3-9.5-9.5c0-5.2,4.3-9.5,9.5-9.5
		c0.7,0,1.3,0.1,1.9,0.2 M12.6,13.2c0,1-0.8,1.8-1.8,1.8c-1,0-1.8-0.8-1.8-1.8c0-1,0.8-1.8,1.8-1.8C11.8,11.4,12.6,12.2,12.6,13.2z
		 M16.3,14.1c-0.1,0.4-0.2,0.8-0.3,1.1c-0.8,2-2.8,3.5-5.2,3.5c-3.1,0-5.5-2.5-5.5-5.5c0-2.3,1.4-4.3,3.5-5.2
		c0.4-0.1,0.7-0.2,1.1-0.3"/>
</g>
</svg>
