<?xml version="1.0" encoding="utf-8"?>
<!-- Generator: Adobe Illustrator 26.3.1, SVG Export Plug-In . SVG Version: 6.00 Build 0)  -->
<svg version="1.1" id="图层_1" xmlns="http://www.w3.org/2000/svg" xmlns:xlink="http://www.w3.org/1999/xlink" x="0px" y="0px"
	 viewBox="0 0 24 24" style="enable-background:new 0 0 24 24;" xml:space="preserve">
<style type="text/css">
	.st1{fill:none;stroke:#292733;stroke-width:1.5;stroke-linecap:round;}
	.st2{fill:#6129FF;}
	.st3{fill:none;stroke:#6129FF;stroke-width:1.5;}
	.st4{fill:none;stroke:#292733;stroke-width:1.4985;stroke-linecap:round;}
	.st5{fill:none;stroke:#6129FF;stroke-width:1.4985;}
	.st6{fill:none;stroke:#6129FF;stroke-width:1.5;stroke-linecap:round;}
	.st7{fill:none;stroke:#6129FF;stroke-width:4;stroke-linecap:round;}
</style>
<g>
	<path class="st2" d="M16.3,4.5c-0.1-0.5-0.8-0.5-0.9,0c-0.2,1.1-1.1,2-2.2,2.2c-0.5,0.1-0.5,0.8,0,0.9c1.1,0.2,2,1.1,2.2,2.2
		c0.1,0.5,0.8,0.5,0.9,0c0.2-1.1,1.1-2,2.2-2.2c0.5-0.1,0.5-0.8,0-0.9C17.4,6.5,16.5,5.6,16.3,4.5z"/>
	<path class="st2" d="M19.6,1.6c-0.1-0.3-0.5-0.3-0.6,0c-0.1,0.7-0.7,1.2-1.3,1.3c-0.3,0.1-0.3,0.5,0,0.6c0.7,0.1,1.2,0.7,1.3,1.3
		c0.1,0.3,0.5,0.3,0.6,0c0.1-0.7,0.7-1.2,1.3-1.3c0.3-0.1,0.3-0.5,0-0.6C20.3,2.8,19.7,2.2,19.6,1.6z"/>
	<path class="st1" d="M8.3,22.7h4 M10.3,19.7v2.5 M2.8,15.2l0.9,1c1.7,1.9,4.1,3,6.6,3c2.5,0,5-1.1,6.6-3l0.9-1 M15.6,12.2
		c-0.7,2.3-2.8,4-5.3,4c-3,0-5.5-2.5-5.5-5.5V9.2c0-3,2.5-5.5,5.5-5.5c0.9,0,1.8,0.2,2.5,0.6"/>
</g>
</svg>
