<svg xmlns="http://www.w3.org/2000/svg" viewBox="0 0 18 18">
  <path
    fill="none"
    stroke="#292733"
    stroke-linecap="round"
    stroke-linejoin="round"
    stroke-width="1.125"
    d="M1.9 11.7C4 11.3 5.6 9.6 6.1 7.5c.1-.3.6-.3.6 0 .4 2.1 2.1 3.7 4.2 4.2.3.1.3.6 0 .6-2.1.4-3.7 2.1-4.2 4.2-.1.3-.6.3-.6 0-.4-2.1-2.1-3.7-4.2-4.2-.3-.1-.3-.5 0-.6zM11.7 7.5C13 7.2 14 6.2 14.2 5c0 0 0 0 0 0 .3 1.3 1.2 2.2 2.5 2.5 0 0 0 0 0 0-1.3.3-2.2 1.2-2.5 2.5 0 0 0 0 0 0-.2-1.2-1.2-2.2-2.5-2.5z"
  />
  <path
    fill="#292733"
    d="M9.4 1c-.1-.4-.7-.4-.8 0-.1.8-.8 1.5-1.6 1.6-.4.1-.4.7 0 .8.8.1 1.5.8 1.6 1.6.1.4.6.4.7 0 .2-.8.8-1.5 1.7-1.7.4-.1.4-.6 0-.7-.8-.1-1.5-.8-1.6-1.6z"
  />
</svg>
