<svg xmlns="http://www.w3.org/2000/svg" viewBox="0 0 32 32">
  <path
    fill="none"
    stroke="#FFFFFF"
    stroke-width="1.5"
    d="M19.1 25.2c2.1-.4 3.7-2.1 4.2-4.2 0 0 .1 0 .1 0 .4 2.1 2.1 3.7 4.2 4.2 0 0 0 .1 0 .1-2.1.4-3.7 2.1-4.2 4.2 0 0-.1 0-.1 0-.5-2.2-2.1-3.8-4.2-4.3z"
  />
  <path
    fill="none"
    stroke="#FFFFFF"
    stroke-linecap="round"
    stroke-width="1.5"
    d="m18.1 9.8 3.5 3.5M5.2 22.6 18.1 9.8l2.2-2.2c1-1 2.6-1 3.5 0 1 1 1 2.6 0 3.5l-2.2 2.2L8.8 26.2c-1 1-2.6 1-3.5 0-1-1-1-2.6-.1-3.6z"
  />
  <path
    fill="#FFFFFF"
    d="M9.5 3.1c-.1-.6-1-.6-1.2 0C8 4.5 6.9 5.6 5.5 5.9c-.6.1-.6 1 0 1.1C6.9 7.3 8 8.4 8.3 9.8c.1.6 1 .6 1.2 0 .3-1.4 1.4-2.5 2.8-2.8.6-.1.6-1 0-1.2-1.4-.2-2.5-1.3-2.8-2.7z"
  />
</svg>
