<svg xmlns="http://www.w3.org/2000/svg" viewBox="0 0 18 18">
  <path
    fill="#292733"
    d="M14.2 1.7c-.1-.4-.6-.4-.7 0-.2.8-.8 1.5-1.7 1.7-.4.1-.4.6 0 .7.8.2 1.5.8 1.7 1.7.1.4.6.4.7 0 .2-.8.8-1.5 1.7-1.7.4-.1.4-.6 0-.7-.8-.2-1.5-.8-1.7-1.7z"
  />
  <path
    fill="none"
    stroke="#292733"
    stroke-linecap="round"
    stroke-linejoin="round"
    stroke-width="1.125"
    d="M15.9 6c.4.9.6 1.9.6 3 0 4.1-3.4 7.5-7.5 7.5-4.1 0-7.5-3.4-7.5-7.5 0-4.1 3.4-7.5 7.5-7.5.6 0 1.3.1 1.9.2M9 9.2c-.9 0-1.7-.8-1.7-1.7 0-.9.8-1.7 1.7-1.7.9 0 1.7.8 1.7 1.7 0 .9-.8 1.7-1.7 1.7zM3.7 13.9c2.8-3 7.7-3 10.5 0"
  />
</svg>
