<svg xmlns="http://www.w3.org/2000/svg" viewBox="0 0 18 18">
  <path
    fill="none"
    stroke="#6129FF"
    stroke-linecap="round"
    stroke-linejoin="round"
    stroke-width="1.125"
    d="M15.7 8.2v4.2c0 .6 0 1 0 1.2-.2 1.2-1.2 2.2-2.4 2.4-.3 0-.6 0-1.2 0h-.8c-.1 0-.3-.1-.3-.2l-1.2-1.3c-.3-.3-.3-.9 0-1.2l.6-.6c.3-.3.5-.8.5-1.2 0-.9-.8-1.7-1.7-1.7-.9 0-1.7.8-1.7 1.7v.1c0 .4.2.9.5 1.2l.6.6c.3.3.3.8 0 1.2L7.1 16c-.1.1-.2.1-.3.1H6c-.7 0-1 0-1.3-.1-1.2-.2-2.1-1.2-2.4-2.4-.1-.3-.1-.6-.1-1.3V9.2c0-.9 0-1.3.1-1.8.1-.4.3-.7.5-1 .3-.3.6-.6 1.4-1.1l3.1-2.2c1-.7 2.4-.7 3.4 0"
  />
  <path
    fill="#6129FF"
    d="M10.3 5.6c1.4-.3 2.6-1.4 2.8-2.8 0 0 0 0 .1 0 .3 1.4 1.4 2.6 2.9 2.8 0 0 0 0 0 .1-1.4.3-2.6 1.4-2.9 2.9 0 0 0 0-.1 0-.3-1.5-1.4-2.7-2.8-3zM16.7 1c0-.2-.4-.2-.4 0-.1.5-.5.9-1 1-.2 0-.2.4 0 .4.5.1.9.5 1 1 0 .2.4.2.4 0 .1-.5.5-.9 1-1 .2 0 .2-.4 0-.4-.5-.1-.9-.5-1-1z"
  />
  <path
    fill="none"
    stroke="#6129FF"
    stroke-linecap="round"
    stroke-linejoin="round"
    stroke-width="1.125"
    d="M10.3 5.6c1.4-.3 2.6-1.4 2.9-2.8 0 0 0 0 .1 0 .3 1.4 1.4 2.6 2.9 2.8 0 0 0 0 0 .1-1.4.3-2.6 1.4-2.9 2.9 0 0 0 0-.1 0-.4-1.5-1.5-2.7-2.9-3z"
  />
</svg>
